<svg width="14" height="20" viewBox="0 0 14 20" xmlns="http://www.w3.org/2000/svg"><title>lock</title><path d="M6.552 20A6.552 6.552 0 0 1 0 13.448a6.54 6.54 0 0 1 3.103-5.563V3.793a3.793 3.793 0 0 1 7.587 0V8.37A6.552 6.552 0 0 1 6.552 20zM9.31 3.793a2.413 2.413 0 1 0-4.827 0v3.442a6.509 6.509 0 0 1 4.828.277V3.793zM6.552 7.931a5.517 5.517 0 1 0 0 11.035 5.517 5.517 0 0 0 0-11.035zm0 10.69a5.172 5.172 0 0 1-5.173-5.173 5.172 5.172 0 0 1 5.173-5.172 5.172 5.172 0 0 1 5.172 5.172 5.172 5.172 0 0 1-5.172 5.173zm1.034-6.552a1.035 1.035 0 0 0-2.069 0c0 .49.348.88.805.989l-.805 3.149H7.63l-.906-3.139a1.02 1.02 0 0 0 .863-.999z" fill="#000" fill-rule="nonzero"/></svg>