<svg xmlns="http://www.w3.org/2000/svg" width="20" height="20" viewBox="0 0 512 512"><title/><path d="M256 512C114.625 512 0 397.391 0 256 0 114.625 114.625 0 256 0s256 114.625 256 256c0 141.391-114.625 256-256 256zm0-448C149.969 64 64 149.969 64 256s85.969 192 192 192 192-85.969 192-192S362.031 64 256 64zm0 64c-53.031 0-96 42.984-96 96h64c0-17.672 14.312-32 32-32s32 14.328 32 32-14.312 32-32 32h-16c-8.844 0-16 7.172-16 16v48h64v-5.875c37.188-13.219 64-48.391 64-90.125 0-53.016-42.969-96-96-96zm0 224h-32v32h64v-32z"/></svg>