<svg xmlns="http://www.w3.org/2000/svg" width="20" height="20" viewBox="0 0 1024 1024"><title/><path d="M570.784 561.344L249.216 882.912c-24.896 24.896-65.376 24.832-90.368-.16-24.992-24.96-25.056-65.44-.16-90.336l24.448-24.448-69.28-69.312c-12.512-12.48-12.544-32.704-.096-45.184 12.48-12.48 32.672-12.416 45.184.096l69.312 69.312 22.56-22.56-24.064-24.064c-12.512-12.512-12.544-32.704-.064-45.184 12.448-12.448 32.672-12.448 45.184.064l24.032 24.064 22.56-22.56-69.312-69.312c-12.512-12.512-12.544-32.672-.064-45.152 12.448-12.48 32.672-12.448 45.184.064l69.28 69.312L480.32 470.784c-75.68-105.44-85.088-231.296-15.36-300.992 80.96-80.96 237.792-55.424 350.24 57.056s138.016 269.28 57.024 350.24c-69.792 69.792-195.904 60.224-301.44-15.744zm176.384-266.88c-49.984-49.984-115.776-65.28-146.912-34.112s-15.872 96.896 34.112 146.912c49.984 49.984 115.744 65.248 146.912 34.112s15.84-96.928-34.112-146.912z"/></svg>
