<svg width="18" height="20" viewBox="0 0 18 20" xmlns="http://www.w3.org/2000/svg"><title>tested</title><g fill="#000" fill-rule="evenodd"><path d="M16.875 2.5H11.25a2.5 2.5 0 1 0-5 0H.625A.625.625 0 0 0 0 3.125v16.25c0 .345.28.625.625.625h16.25c.345 0 .625-.28.625-.625V3.125a.625.625 0 0 0-.625-.625zM8.75 1.25a1.25 1.25 0 1 1 0 2.5 1.25 1.25 0 0 1 0-2.5zm7.5 17.5h-15v-15h2.5v1.875c0 .345.28.625.625.625h8.75c.345 0 .625-.28.625-.625V3.75h2.5v15z" fill-rule="nonzero"/><path d="M7.5 16.768l-4.009-4.634 1.143-1.143L7.5 13.232l5.366-4.74 1.143 1.142z"/></g></svg>